<?xml version="1.0" encoding="utf-8" standalone="no"?>
<!DOCTYPE svg PUBLIC "-//W3C//DTD SVG 1.1//EN"
  "http://www.w3.org/Graphics/SVG/1.1/DTD/svg11.dtd">
<svg xmlns:xlink="http://www.w3.org/1999/xlink" width="381.6pt" height="216.596649pt" viewBox="0 0 381.6 216.596649" xmlns="http://www.w3.org/2000/svg" version="1.1">
 <metadata>
  <rdf:RDF xmlns:dc="http://purl.org/dc/elements/1.1/" xmlns:cc="http://creativecommons.org/ns#" xmlns:rdf="http://www.w3.org/1999/02/22-rdf-syntax-ns#">
   <cc:Work>
    <dc:type rdf:resource="http://purl.org/dc/dcmitype/StillImage"/>
    <dc:date>2026-06-24T14:00:47.494833</dc:date>
    <dc:format>image/svg+xml</dc:format>
    <dc:creator>
     <cc:Agent>
      <dc:title>Matplotlib v3.11.0, https://matplotlib.org/</dc:title>
     </cc:Agent>
    </dc:creator>
   </cc:Work>
  </rdf:RDF>
 </metadata>
 <defs>
  <style type="text/css">*{stroke-linejoin: round; stroke-linecap: butt}</style>
 </defs>
 <g id="figure_1">
  <g id="patch_1">
   <path d="M 0 216.596649 
L 381.6 216.596649 
L 381.6 0 
L 0 0 
z
" style="fill: #ffffff"/>
  </g>
  <g id="axes_1">
   <g id="patch_2">
    <path d="M 7.2 201.684867 
L 374.4 201.684867 
L 374.4 48.234969 
L 7.2 48.234969 
z
" style="fill: #ffffff"/>
   </g>
   <g id="matplotlib.axis_1">
    <g id="xtick_1">
     <g id="line2d_1"/>
     <g id="text_1">
      <!-- $\mu-c$ -->
      <g transform="translate(212.081818 206.991961) scale(0.1 -0.1)">
       <defs>
        <path id="DejaVuSans-Oblique-350" d="M -84 -1331 
L 856 3500 
L 1434 3500 
L 1009 1322 
Q 997 1256 987 1175 
Q 978 1094 978 1013 
Q 978 722 1161 565 
Q 1344 409 1684 409 
Q 2147 409 2431 671 
Q 2716 934 2816 1459 
L 3213 3500 
L 3788 3500 
L 3266 809 
Q 3253 750 3248 706 
Q 3244 663 3244 628 
Q 3244 531 3283 486 
Q 3322 441 3406 441 
Q 3438 441 3492 456 
Q 3547 472 3647 513 
L 3559 50 
Q 3422 -19 3297 -55 
Q 3172 -91 3053 -91 
Q 2847 -91 2730 40 
Q 2613 172 2613 403 
Q 2438 153 2195 31 
Q 1953 -91 1625 -91 
Q 1334 -91 1117 43 
Q 900 178 831 397 
L 494 -1331 
L -84 -1331 
z
" transform="scale(0.015625)"/>
        <path id="DejaVuSans-c9c" d="M 678 2272 
L 4684 2272 
L 4684 1741 
L 678 1741 
L 678 2272 
z
" transform="scale(0.015625)"/>
        <path id="DejaVuSans-Oblique-46" d="M 3431 3366 
L 3316 2797 
Q 3109 2947 2876 3022 
Q 2644 3097 2394 3097 
Q 2119 3097 1870 3000 
Q 1622 2903 1453 2725 
Q 1184 2453 1037 2087 
Q 891 1722 891 1331 
Q 891 859 1127 628 
Q 1363 397 1844 397 
Q 2081 397 2348 469 
Q 2616 541 2906 684 
L 2797 116 
Q 2547 13 2283 -39 
Q 2019 -91 1741 -91 
Q 1044 -91 669 257 
Q 294 606 294 1253 
Q 294 1797 489 2255 
Q 684 2713 1069 3078 
Q 1331 3328 1684 3456 
Q 2038 3584 2456 3584 
Q 2700 3584 2940 3529 
Q 3181 3475 3431 3366 
z
" transform="scale(0.015625)"/>
       </defs>
       <use xlink:href="#DejaVuSans-Oblique-350"/>
       <use xlink:href="#DejaVuSans-c9c" transform="translate(83.105469 0)"/>
       <use xlink:href="#DejaVuSans-Oblique-46" transform="translate(186.376953 0)"/>
      </g>
     </g>
    </g>
    <g id="xtick_2">
     <g id="line2d_2"/>
     <g id="text_2">
      <!-- $\mu$ -->
      <g transform="translate(254.363636 206.991961) scale(0.1 -0.1)">
       <use xlink:href="#DejaVuSans-Oblique-350" transform="translate(0 0.3125)"/>
      </g>
     </g>
    </g>
    <g id="xtick_3">
     <g id="line2d_3"/>
     <g id="text_3">
      <!-- $\mu+\lambda$ -->
      <g transform="translate(278.645455 206.994305) scale(0.1 -0.1)">
       <defs>
        <path id="DejaVuSans-e" d="M 2944 4013 
L 2944 2272 
L 4684 2272 
L 4684 1741 
L 2944 1741 
L 2944 0 
L 2419 0 
L 2419 1741 
L 678 1741 
L 678 2272 
L 2419 2272 
L 2419 4013 
L 2944 4013 
z
" transform="scale(0.015625)"/>
        <path id="DejaVuSans-Oblique-34f" d="M 2350 4316 
L 3125 0 
L 2516 0 
L 2038 2588 
L 328 0 
L -281 0 
L 1903 3356 
L 1794 3975 
Q 1725 4369 1391 4369 
L 1091 4369 
L 1184 4863 
L 1550 4856 
Q 2253 4847 2350 4316 
z
" transform="scale(0.015625)"/>
       </defs>
       <use xlink:href="#DejaVuSans-Oblique-350" transform="translate(0 0.015625)"/>
       <use xlink:href="#DejaVuSans-e" transform="translate(83.105469 0.015625)"/>
       <use xlink:href="#DejaVuSans-Oblique-34f" transform="translate(186.376953 0.015625)"/>
      </g>
     </g>
    </g>
   </g>
   <g id="matplotlib.axis_2"/>
   <g id="line2d_4">
    <path d="M 170.511513 -1 
L 175.079104 19.121361 
L 179.09295 35.906947 
L 183.106795 51.855347 
L 187.120641 66.96656 
L 191.134487 81.240588 
L 195.148333 94.677429 
L 199.162179 107.277083 
L 203.176025 119.039551 
L 206.520896 128.202091 
L 209.865768 136.783251 
L 213.210639 144.783032 
L 216.555511 152.201433 
L 219.900383 159.038455 
L 223.245254 165.294097 
L 225.921151 169.880018 
L 228.597049 174.093856 
L 231.272946 177.935611 
L 233.948843 181.405284 
L 236.62474 184.502873 
L 239.300638 187.22838 
L 241.976535 189.581804 
L 244.652432 191.563145 
L 246.659355 192.804971 
L 248.666278 193.837501 
L 250.673201 194.660734 
L 252.680124 195.274671 
L 254.687047 195.679311 
L 256.69397 195.874654 
L 258.700893 195.860701 
L 260.707816 195.637451 
L 262.714739 195.204905 
L 264.721662 194.563062 
L 266.728584 193.711923 
L 268.735507 192.651487 
L 270.74243 191.381754 
L 272.749353 189.902725 
L 275.425251 187.605114 
L 278.101148 184.935419 
L 280.777045 181.893642 
L 283.452942 178.479782 
L 286.128839 174.69384 
L 288.804737 170.535814 
L 291.480634 166.005706 
L 294.156531 161.103515 
L 297.501403 154.452534 
L 300.846274 147.220174 
L 304.191146 139.406435 
L 307.536017 131.011316 
L 310.880889 122.034818 
L 314.225761 112.476941 
L 317.570632 102.337684 
L 321.584478 89.403155 
L 325.598324 75.631439 
L 329.61217 61.022537 
L 333.626016 45.576449 
L 337.639862 29.293175 
L 341.653707 12.172714 
L 344.615497 -1 
L 344.615497 -1 
" clip-path="url(#p60ab32aa27)" style="fill: none; stroke: #1f77b4; stroke-width: 2; stroke-linecap: square"/>
   </g>
   <g id="line2d_5">
    <path d="M 50.076996 -1 
L 56.67065 13.631395 
L 63.360394 27.898445 
L 69.381162 40.241712 
L 75.401931 52.114061 
L 81.4227 63.515492 
L 87.443469 74.446007 
L 93.464238 84.905604 
L 99.485006 94.894283 
L 105.505775 104.412045 
L 110.85757 112.476941 
L 116.209364 120.169753 
L 121.561159 127.490483 
L 126.912953 134.439129 
L 132.264748 141.015693 
L 137.616542 147.220174 
L 142.968337 153.052572 
L 147.651157 157.850697 
L 152.333977 162.363945 
L 157.016797 166.592318 
L 161.699617 170.535814 
L 166.382438 174.194435 
L 171.065258 177.568179 
L 175.748078 180.657048 
L 180.430898 183.461041 
L 185.113718 185.980158 
L 189.796539 188.214399 
L 193.810384 189.902725 
L 197.82423 191.381754 
L 201.838076 192.651487 
L 205.851922 193.711923 
L 209.865768 194.563062 
L 213.879614 195.204905 
L 217.89346 195.637451 
L 221.907306 195.860701 
L 225.921151 195.874654 
L 229.934997 195.679311 
L 233.948843 195.274671 
L 237.962689 194.660734 
L 241.976535 193.837501 
L 245.990381 192.804971 
L 250.004227 191.563145 
L 254.018073 190.112022 
L 258.031918 188.451602 
L 262.045764 186.581886 
L 266.728584 184.136023 
L 271.411405 181.405284 
L 276.094225 178.389669 
L 280.777045 175.089178 
L 285.459865 171.503811 
L 290.142685 167.633568 
L 294.825506 163.478449 
L 299.508326 159.038455 
L 304.191146 154.313584 
L 308.873966 149.303838 
L 314.225761 143.229586 
L 319.577555 136.783251 
L 324.92935 129.964833 
L 330.281144 122.774333 
L 335.632939 115.211749 
L 340.984733 107.277083 
L 346.336528 98.970334 
L 351.688322 90.291502 
L 357.709091 80.083061 
L 357.709091 80.083061 
" clip-path="url(#p60ab32aa27)" style="fill: none; stroke: #ff7f0e; stroke-width: 2; stroke-linecap: square"/>
   </g>
   <g id="line2d_6">
    <path d="M 23.890909 195.894305 
L 291.480634 195.894305 
L 291.480634 166.941494 
L 357.709091 166.941494 
L 357.709091 166.941494 
" clip-path="url(#p60ab32aa27)" style="fill: none; stroke: #2ca02c; stroke-width: 2; stroke-linecap: square"/>
   </g>
   <g id="patch_3">
    <path d="M 190.8 201.684867 
L 190.8 48.234969 
" style="fill: none; stroke: #000000; stroke-width: 0.8; stroke-linejoin: miter; stroke-linecap: square"/>
   </g>
   <g id="patch_4">
    <path d="M 7.2 195.894305 
L 374.4 195.894305 
" style="fill: none; stroke: #000000; stroke-width: 0.8; stroke-linejoin: miter; stroke-linecap: square"/>
   </g>
   <g id="legend_1">
    <g id="line2d_7">
     <path d="M 129.45 17.1 
L 139.45 17.1 
L 149.45 17.1 
" style="fill: none; stroke: #1f77b4; stroke-width: 2; stroke-linecap: square"/>
    </g>
    <g id="text_4">
     <!-- $(x-\mu)^2/\lambda^2$ -->
     <g transform="translate(157.45 20.6) scale(0.1 -0.1)">
      <defs>
       <path id="DejaVuSans-b" d="M 1984 4856 
Q 1566 4138 1362 3434 
Q 1159 2731 1159 2009 
Q 1159 1288 1364 580 
Q 1569 -128 1984 -844 
L 1484 -844 
Q 1016 -109 783 600 
Q 550 1309 550 2009 
Q 550 2706 781 3412 
Q 1013 4119 1484 4856 
L 1984 4856 
z
" transform="scale(0.015625)"/>
       <path id="DejaVuSans-Oblique-5b" d="M 3841 3500 
L 2234 1784 
L 3219 0 
L 2559 0 
L 1819 1388 
L 531 0 
L -166 0 
L 1556 1844 
L 641 3500 
L 1300 3500 
L 1972 2234 
L 3144 3500 
L 3841 3500 
z
" transform="scale(0.015625)"/>
       <path id="DejaVuSans-c" d="M 513 4856 
L 1013 4856 
Q 1481 4119 1714 3412 
Q 1947 2706 1947 2009 
Q 1947 1309 1714 600 
Q 1481 -109 1013 -844 
L 513 -844 
Q 928 -128 1133 580 
Q 1338 1288 1338 2009 
Q 1338 2731 1133 3434 
Q 928 4138 513 4856 
z
" transform="scale(0.015625)"/>
       <path id="DejaVuSans-15" d="M 1228 531 
L 3431 531 
L 3431 0 
L 469 0 
L 469 531 
Q 828 903 1448 1529 
Q 2069 2156 2228 2338 
Q 2531 2678 2651 2914 
Q 2772 3150 2772 3378 
Q 2772 3750 2511 3984 
Q 2250 4219 1831 4219 
Q 1534 4219 1204 4116 
Q 875 4013 500 3803 
L 500 4441 
Q 881 4594 1212 4672 
Q 1544 4750 1819 4750 
Q 2544 4750 2975 4387 
Q 3406 4025 3406 3419 
Q 3406 3131 3298 2873 
Q 3191 2616 2906 2266 
Q 2828 2175 2409 1742 
Q 1991 1309 1228 531 
z
" transform="scale(0.015625)"/>
       <path id="DejaVuSans-12" d="M 1625 4666 
L 2156 4666 
L 531 -594 
L 0 -594 
L 1625 4666 
z
" transform="scale(0.015625)"/>
      </defs>
      <use xlink:href="#DejaVuSans-b" transform="translate(0 0.746875)"/>
      <use xlink:href="#DejaVuSans-Oblique-5b" transform="translate(39.013672 0.746875)"/>
      <use xlink:href="#DejaVuSans-c9c" transform="translate(117.675781 0.746875)"/>
      <use xlink:href="#DejaVuSans-Oblique-350" transform="translate(220.947266 0.746875)"/>
      <use xlink:href="#DejaVuSans-c" transform="translate(284.570312 0.746875)"/>
      <use xlink:href="#DejaVuSans-15" transform="translate(324.541016 42.046875) scale(0.7)"/>
      <use xlink:href="#DejaVuSans-12" transform="translate(371.811523 0.746875)"/>
      <use xlink:href="#DejaVuSans-Oblique-34f" transform="translate(405.50293 0.746875)"/>
      <use xlink:href="#DejaVuSans-15" transform="translate(472.130326 42.046875) scale(0.7)"/>
     </g>
    </g>
    <g id="line2d_8">
     <path d="M 129.45 33.902344 
L 139.45 33.902344 
L 149.45 33.902344 
" style="fill: none; stroke: #ff7f0e; stroke-width: 2; stroke-linecap: square"/>
    </g>
    <g id="text_5">
     <!-- $(x-\mu+c)^2/(\lambda+c)^2$ -->
     <g transform="translate(157.45 37.402344) scale(0.1 -0.1)">
      <use xlink:href="#DejaVuSans-b" transform="translate(0 0.746875)"/>
      <use xlink:href="#DejaVuSans-Oblique-5b" transform="translate(39.013672 0.746875)"/>
      <use xlink:href="#DejaVuSans-c9c" transform="translate(117.675781 0.746875)"/>
      <use xlink:href="#DejaVuSans-Oblique-350" transform="translate(220.947266 0.746875)"/>
      <use xlink:href="#DejaVuSans-e" transform="translate(304.052734 0.746875)"/>
      <use xlink:href="#DejaVuSans-Oblique-46" transform="translate(407.324219 0.746875)"/>
      <use xlink:href="#DejaVuSans-c" transform="translate(462.304688 0.746875)"/>
      <use xlink:href="#DejaVuSans-15" transform="translate(502.275391 42.046875) scale(0.7)"/>
      <use xlink:href="#DejaVuSans-12" transform="translate(549.545898 0.746875)"/>
      <use xlink:href="#DejaVuSans-b" transform="translate(583.237305 0.746875)"/>
      <use xlink:href="#DejaVuSans-Oblique-34f" transform="translate(622.250977 0.746875)"/>
      <use xlink:href="#DejaVuSans-e" transform="translate(700.913086 0.746875)"/>
      <use xlink:href="#DejaVuSans-Oblique-46" transform="translate(804.18457 0.746875)"/>
      <use xlink:href="#DejaVuSans-c" transform="translate(859.165039 0.746875)"/>
      <use xlink:href="#DejaVuSans-15" transform="translate(899.135742 42.046875) scale(0.7)"/>
     </g>
    </g>
    <g id="line2d_9">
     <path d="M 129.45 48.904687 
L 139.45 48.904687 
L 139.45 48.904687 
L 149.45 48.904687 
L 149.45 48.904687 
" style="fill: none; stroke: #2ca02c; stroke-width: 2; stroke-linecap: square"/>
    </g>
    <g id="text_6">
     <!-- $\mathbf{1}\{x \geq \mu+\lambda\}$ -->
     <g transform="translate(157.45 52.404687) scale(0.1 -0.1)">
      <defs>
       <path id="DejaVuSans-Bold-14" d="M 750 831 
L 1813 831 
L 1813 3847 
L 722 3622 
L 722 4441 
L 1806 4666 
L 2950 4666 
L 2950 831 
L 4013 831 
L 4013 0 
L 750 0 
L 750 831 
z
" transform="scale(0.015625)"/>
       <path id="DejaVuSans-5e" d="M 3272 -594 
L 3272 -1044 
L 3078 -1044 
Q 2300 -1044 2036 -812 
Q 1772 -581 1772 109 
L 1772 856 
Q 1772 1328 1603 1509 
Q 1434 1691 991 1691 
L 800 1691 
L 800 2138 
L 991 2138 
Q 1438 2138 1605 2317 
Q 1772 2497 1772 2963 
L 1772 3713 
Q 1772 4403 2036 4633 
Q 2300 4863 3078 4863 
L 3272 4863 
L 3272 4416 
L 3059 4416 
Q 2619 4416 2484 4278 
Q 2350 4141 2350 3700 
L 2350 2925 
Q 2350 2434 2208 2212 
Q 2066 1991 1722 1913 
Q 2069 1828 2209 1606 
Q 2350 1384 2350 897 
L 2350 122 
Q 2350 -319 2484 -456 
Q 2619 -594 3059 -594 
L 3272 -594 
z
" transform="scale(0.015625)"/>
       <path id="DejaVuSans-cef" d="M 678 3175 
L 678 3725 
L 4684 2578 
L 4684 2047 
L 678 897 
L 678 1453 
L 3681 2309 
L 678 3175 
z
M 4684 531 
L 4684 0 
L 678 0 
L 678 531 
L 4684 531 
z
" transform="scale(0.015625)"/>
       <path id="DejaVuSans-60" d="M 800 -594 
L 1019 -594 
Q 1456 -594 1589 -459 
Q 1722 -325 1722 122 
L 1722 897 
Q 1722 1384 1862 1606 
Q 2003 1828 2350 1913 
Q 2003 1991 1862 2212 
Q 1722 2434 1722 2925 
L 1722 3700 
Q 1722 4144 1589 4280 
Q 1456 4416 1019 4416 
L 800 4416 
L 800 4863 
L 997 4863 
Q 1775 4863 2036 4633 
Q 2297 4403 2297 3713 
L 2297 2963 
Q 2297 2497 2465 2317 
Q 2634 2138 3078 2138 
L 3272 2138 
L 3272 1691 
L 3078 1691 
Q 2634 1691 2465 1509 
Q 2297 1328 2297 856 
L 2297 109 
Q 2297 -581 2036 -812 
Q 1775 -1044 997 -1044 
L 800 -1044 
L 800 -594 
z
" transform="scale(0.015625)"/>
      </defs>
      <use xlink:href="#DejaVuSans-Bold-14" transform="translate(0 0.015625)"/>
      <use xlink:href="#DejaVuSans-5e" transform="translate(69.580078 0.015625)"/>
      <use xlink:href="#DejaVuSans-Oblique-5b" transform="translate(133.203125 0.015625)"/>
      <use xlink:href="#DejaVuSans-cef" transform="translate(211.865234 0.015625)"/>
      <use xlink:href="#DejaVuSans-Oblique-350" transform="translate(315.136719 0.015625)"/>
      <use xlink:href="#DejaVuSans-e" transform="translate(398.242188 0.015625)"/>
      <use xlink:href="#DejaVuSans-Oblique-34f" transform="translate(501.513672 0.015625)"/>
      <use xlink:href="#DejaVuSans-60" transform="translate(560.693359 0.015625)"/>
     </g>
    </g>
   </g>
  </g>
 </g>
 <defs>
  <clipPath id="p60ab32aa27">
   <rect x="7.2" y="48.234969" width="367.2" height="153.449898"/>
  </clipPath>
 </defs>
</svg>
