<?xml version="1.0" encoding="utf-8" standalone="no"?>
<!DOCTYPE svg PUBLIC "-//W3C//DTD SVG 1.1//EN"
  "http://www.w3.org/Graphics/SVG/1.1/DTD/svg11.dtd">
<svg xmlns:xlink="http://www.w3.org/1999/xlink" width="360pt" height="230.4pt" viewBox="0 0 360 230.4" xmlns="http://www.w3.org/2000/svg" version="1.1">
 <metadata>
  <rdf:RDF xmlns:dc="http://purl.org/dc/elements/1.1/" xmlns:cc="http://creativecommons.org/ns#" xmlns:rdf="http://www.w3.org/1999/02/22-rdf-syntax-ns#">
   <cc:Work>
    <dc:type rdf:resource="http://purl.org/dc/dcmitype/StillImage"/>
    <dc:date>2026-06-24T14:00:47.420846</dc:date>
    <dc:format>image/svg+xml</dc:format>
    <dc:creator>
     <cc:Agent>
      <dc:title>Matplotlib v3.11.0, https://matplotlib.org/</dc:title>
     </cc:Agent>
    </dc:creator>
   </cc:Work>
  </rdf:RDF>
 </metadata>
 <defs>
  <style type="text/css">*{stroke-linejoin: round; stroke-linecap: butt}</style>
 </defs>
 <g id="figure_1">
  <g id="patch_1">
   <path d="M 0 230.4 
L 360 230.4 
L 360 0 
L 0 0 
z
" style="fill: #ffffff"/>
  </g>
  <g id="axes_1">
   <g id="patch_2">
    <path d="M 10.8 212.472298 
L 349.2 212.472298 
L 349.2 10.8 
L 10.8 10.8 
z
" style="fill: #ffffff"/>
   </g>
   <g id="matplotlib.axis_1">
    <g id="xtick_1">
     <g id="line2d_1"/>
     <g id="text_1">
      <!-- $\mu-\lambda$ -->
      <g transform="translate(198.463636 215.962022) scale(0.1 -0.1)">
       <defs>
        <path id="DejaVuSans-Oblique-350" d="M -84 -1331 
L 856 3500 
L 1434 3500 
L 1009 1322 
Q 997 1256 987 1175 
Q 978 1094 978 1013 
Q 978 722 1161 565 
Q 1344 409 1684 409 
Q 2147 409 2431 671 
Q 2716 934 2816 1459 
L 3213 3500 
L 3788 3500 
L 3266 809 
Q 3253 750 3248 706 
Q 3244 663 3244 628 
Q 3244 531 3283 486 
Q 3322 441 3406 441 
Q 3438 441 3492 456 
Q 3547 472 3647 513 
L 3559 50 
Q 3422 -19 3297 -55 
Q 3172 -91 3053 -91 
Q 2847 -91 2730 40 
Q 2613 172 2613 403 
Q 2438 153 2195 31 
Q 1953 -91 1625 -91 
Q 1334 -91 1117 43 
Q 900 178 831 397 
L 494 -1331 
L -84 -1331 
z
" transform="scale(0.015625)"/>
        <path id="DejaVuSans-c9c" d="M 678 2272 
L 4684 2272 
L 4684 1741 
L 678 1741 
L 678 2272 
z
" transform="scale(0.015625)"/>
        <path id="DejaVuSans-Oblique-34f" d="M 2350 4316 
L 3125 0 
L 2516 0 
L 2038 2588 
L 328 0 
L -281 0 
L 1903 3356 
L 1794 3975 
Q 1725 4369 1391 4369 
L 1091 4369 
L 1184 4863 
L 1550 4856 
Q 2253 4847 2350 4316 
z
" transform="scale(0.015625)"/>
       </defs>
       <use xlink:href="#DejaVuSans-Oblique-350" transform="translate(0 0.015625)"/>
       <use xlink:href="#DejaVuSans-c9c" transform="translate(83.105469 0.015625)"/>
       <use xlink:href="#DejaVuSans-Oblique-34f" transform="translate(186.376953 0.015625)"/>
      </g>
     </g>
    </g>
    <g id="xtick_2">
     <g id="line2d_2"/>
     <g id="text_2">
      <!-- $\mu$ -->
      <g transform="translate(238.327273 215.959679) scale(0.1 -0.1)">
       <use xlink:href="#DejaVuSans-Oblique-350" transform="translate(0 0.3125)"/>
      </g>
     </g>
    </g>
    <g id="xtick_3">
     <g id="line2d_3"/>
     <g id="text_3">
      <!-- $\mu+\lambda$ -->
      <g transform="translate(259.990909 215.962022) scale(0.1 -0.1)">
       <defs>
        <path id="DejaVuSans-e" d="M 2944 4013 
L 2944 2272 
L 4684 2272 
L 4684 1741 
L 2944 1741 
L 2944 0 
L 2419 0 
L 2419 1741 
L 678 1741 
L 678 2272 
L 2419 2272 
L 2419 4013 
L 2944 4013 
z
" transform="scale(0.015625)"/>
       </defs>
       <use xlink:href="#DejaVuSans-Oblique-350" transform="translate(0 0.015625)"/>
       <use xlink:href="#DejaVuSans-e" transform="translate(83.105469 0.015625)"/>
       <use xlink:href="#DejaVuSans-Oblique-34f" transform="translate(186.376953 0.015625)"/>
      </g>
     </g>
    </g>
   </g>
   <g id="matplotlib.axis_2"/>
   <g id="line2d_4">
    <path d="M 169.97265 -1 
L 174.143195 22.300348 
L 177.84223 41.793578 
L 181.541264 60.186531 
L 185.240299 77.479208 
L 188.939333 93.671608 
L 192.638368 108.763732 
L 195.720896 120.500013 
L 198.803425 131.472214 
L 201.885954 141.680333 
L 204.968482 151.124372 
L 208.051011 159.80433 
L 211.13354 167.720207 
L 213.599563 173.502771 
L 216.065586 178.796323 
L 218.531609 183.600863 
L 220.997632 187.916391 
L 223.463655 191.742908 
L 225.929678 195.080413 
L 227.779195 197.262627 
L 229.628712 199.169773 
L 231.478229 200.80185 
L 233.327746 202.158857 
L 235.177264 203.240796 
L 237.026781 204.047665 
L 238.876298 204.579465 
L 240.725815 204.836196 
L 242.575332 204.817859 
L 244.42485 204.524451 
L 246.274367 203.955975 
L 248.123884 203.11243 
L 249.973401 201.993816 
L 251.822919 200.600132 
L 253.672436 198.93138 
L 255.521953 196.987558 
L 257.37147 194.768668 
L 259.220987 192.274708 
L 261.68701 188.521543 
L 264.153033 184.279366 
L 266.619056 179.548178 
L 269.085079 174.327978 
L 271.551102 168.618766 
L 274.017125 162.420543 
L 277.099654 153.985091 
L 280.182183 144.785558 
L 283.264711 134.821944 
L 286.34724 124.09425 
L 289.429769 112.602474 
L 292.512297 100.346618 
L 296.211332 84.631004 
L 299.910366 67.815114 
L 303.609401 49.898947 
L 307.308435 30.882504 
L 311.007469 10.765784 
L 313.081758 -1 
L 313.081758 -1 
" clip-path="url(#pd14f33b053)" style="fill: none; stroke: #1f77b4; stroke-width: 2; stroke-linecap: square"/>
   </g>
   <g id="line2d_5">
    <path d="M 26.181818 166.810645 
L 211.13354 166.810645 
L 211.13354 204.862022 
L 272.784114 204.862022 
L 272.784114 166.810645 
L 333.818182 166.810645 
L 333.818182 166.810645 
" clip-path="url(#pd14f33b053)" style="fill: none; stroke: #ff7f0e; stroke-width: 2; stroke-linecap: square"/>
   </g>
   <g id="patch_3">
    <path d="M 180 212.472298 
L 180 10.8 
" style="fill: none; stroke: #000000; stroke-width: 0.8; stroke-linejoin: miter; stroke-linecap: square"/>
   </g>
   <g id="patch_4">
    <path d="M 10.8 204.862022 
L 349.2 204.862022 
" style="fill: none; stroke: #000000; stroke-width: 0.8; stroke-linejoin: miter; stroke-linecap: square"/>
   </g>
   <g id="legend_1">
    <g id="patch_5">
     <path d="M 17.8 50.704688 
L 119 50.704688 
Q 121 50.704688 121 48.704688 
L 121 17.8 
Q 121 15.8 119 15.8 
L 17.8 15.8 
Q 15.8 15.8 15.8 17.8 
L 15.8 48.704688 
Q 15.8 50.704688 17.8 50.704688 
z
" style="fill: #ffffff; opacity: 0.8; stroke: #cccccc; stroke-linejoin: miter"/>
    </g>
    <g id="line2d_6">
     <path d="M 19.8 25.7 
L 29.8 25.7 
L 39.8 25.7 
" style="fill: none; stroke: #1f77b4; stroke-width: 2; stroke-linecap: square"/>
    </g>
    <g id="text_4">
     <!-- $(x-\mu)^2/\lambda^2$ -->
     <g transform="translate(47.8 29.2) scale(0.1 -0.1)">
      <defs>
       <path id="DejaVuSans-b" d="M 1984 4856 
Q 1566 4138 1362 3434 
Q 1159 2731 1159 2009 
Q 1159 1288 1364 580 
Q 1569 -128 1984 -844 
L 1484 -844 
Q 1016 -109 783 600 
Q 550 1309 550 2009 
Q 550 2706 781 3412 
Q 1013 4119 1484 4856 
L 1984 4856 
z
" transform="scale(0.015625)"/>
       <path id="DejaVuSans-Oblique-5b" d="M 3841 3500 
L 2234 1784 
L 3219 0 
L 2559 0 
L 1819 1388 
L 531 0 
L -166 0 
L 1556 1844 
L 641 3500 
L 1300 3500 
L 1972 2234 
L 3144 3500 
L 3841 3500 
z
" transform="scale(0.015625)"/>
       <path id="DejaVuSans-c" d="M 513 4856 
L 1013 4856 
Q 1481 4119 1714 3412 
Q 1947 2706 1947 2009 
Q 1947 1309 1714 600 
Q 1481 -109 1013 -844 
L 513 -844 
Q 928 -128 1133 580 
Q 1338 1288 1338 2009 
Q 1338 2731 1133 3434 
Q 928 4138 513 4856 
z
" transform="scale(0.015625)"/>
       <path id="DejaVuSans-15" d="M 1228 531 
L 3431 531 
L 3431 0 
L 469 0 
L 469 531 
Q 828 903 1448 1529 
Q 2069 2156 2228 2338 
Q 2531 2678 2651 2914 
Q 2772 3150 2772 3378 
Q 2772 3750 2511 3984 
Q 2250 4219 1831 4219 
Q 1534 4219 1204 4116 
Q 875 4013 500 3803 
L 500 4441 
Q 881 4594 1212 4672 
Q 1544 4750 1819 4750 
Q 2544 4750 2975 4387 
Q 3406 4025 3406 3419 
Q 3406 3131 3298 2873 
Q 3191 2616 2906 2266 
Q 2828 2175 2409 1742 
Q 1991 1309 1228 531 
z
" transform="scale(0.015625)"/>
       <path id="DejaVuSans-12" d="M 1625 4666 
L 2156 4666 
L 531 -594 
L 0 -594 
L 1625 4666 
z
" transform="scale(0.015625)"/>
      </defs>
      <use xlink:href="#DejaVuSans-b" transform="translate(0 0.746875)"/>
      <use xlink:href="#DejaVuSans-Oblique-5b" transform="translate(39.013672 0.746875)"/>
      <use xlink:href="#DejaVuSans-c9c" transform="translate(117.675781 0.746875)"/>
      <use xlink:href="#DejaVuSans-Oblique-350" transform="translate(220.947266 0.746875)"/>
      <use xlink:href="#DejaVuSans-c" transform="translate(284.570312 0.746875)"/>
      <use xlink:href="#DejaVuSans-15" transform="translate(324.541016 42.046875) scale(0.7)"/>
      <use xlink:href="#DejaVuSans-12" transform="translate(371.811523 0.746875)"/>
      <use xlink:href="#DejaVuSans-Oblique-34f" transform="translate(405.50293 0.746875)"/>
      <use xlink:href="#DejaVuSans-15" transform="translate(472.130326 42.046875) scale(0.7)"/>
     </g>
    </g>
    <g id="line2d_7">
     <path d="M 19.8 40.802344 
L 29.8 40.802344 
L 29.8 40.802344 
L 39.8 40.802344 
L 39.8 40.802344 
" style="fill: none; stroke: #ff7f0e; stroke-width: 2; stroke-linecap: square"/>
    </g>
    <g id="text_5">
     <!-- $\mathbf{1}\{|x-\mu| \geq \lambda\}$ -->
     <g transform="translate(47.8 44.302344) scale(0.1 -0.1)">
      <defs>
       <path id="DejaVuSans-Bold-14" d="M 750 831 
L 1813 831 
L 1813 3847 
L 722 3622 
L 722 4441 
L 1806 4666 
L 2950 4666 
L 2950 831 
L 4013 831 
L 4013 0 
L 750 0 
L 750 831 
z
" transform="scale(0.015625)"/>
       <path id="DejaVuSans-5e" d="M 3272 -594 
L 3272 -1044 
L 3078 -1044 
Q 2300 -1044 2036 -812 
Q 1772 -581 1772 109 
L 1772 856 
Q 1772 1328 1603 1509 
Q 1434 1691 991 1691 
L 800 1691 
L 800 2138 
L 991 2138 
Q 1438 2138 1605 2317 
Q 1772 2497 1772 2963 
L 1772 3713 
Q 1772 4403 2036 4633 
Q 2300 4863 3078 4863 
L 3272 4863 
L 3272 4416 
L 3059 4416 
Q 2619 4416 2484 4278 
Q 2350 4141 2350 3700 
L 2350 2925 
Q 2350 2434 2208 2212 
Q 2066 1991 1722 1913 
Q 2069 1828 2209 1606 
Q 2350 1384 2350 897 
L 2350 122 
Q 2350 -319 2484 -456 
Q 2619 -594 3059 -594 
L 3272 -594 
z
" transform="scale(0.015625)"/>
       <path id="DejaVuSans-5f" d="M 1344 4891 
L 1344 -1509 
L 813 -1509 
L 813 4891 
L 1344 4891 
z
" transform="scale(0.015625)"/>
       <path id="DejaVuSans-cef" d="M 678 3175 
L 678 3725 
L 4684 2578 
L 4684 2047 
L 678 897 
L 678 1453 
L 3681 2309 
L 678 3175 
z
M 4684 531 
L 4684 0 
L 678 0 
L 678 531 
L 4684 531 
z
" transform="scale(0.015625)"/>
       <path id="DejaVuSans-60" d="M 800 -594 
L 1019 -594 
Q 1456 -594 1589 -459 
Q 1722 -325 1722 122 
L 1722 897 
Q 1722 1384 1862 1606 
Q 2003 1828 2350 1913 
Q 2003 1991 1862 2212 
Q 1722 2434 1722 2925 
L 1722 3700 
Q 1722 4144 1589 4280 
Q 1456 4416 1019 4416 
L 800 4416 
L 800 4863 
L 997 4863 
Q 1775 4863 2036 4633 
Q 2297 4403 2297 3713 
L 2297 2963 
Q 2297 2497 2465 2317 
Q 2634 2138 3078 2138 
L 3272 2138 
L 3272 1691 
L 3078 1691 
Q 2634 1691 2465 1509 
Q 2297 1328 2297 856 
L 2297 109 
Q 2297 -581 2036 -812 
Q 1775 -1044 997 -1044 
L 800 -1044 
L 800 -594 
z
" transform="scale(0.015625)"/>
      </defs>
      <use xlink:href="#DejaVuSans-Bold-14" transform="translate(0 0.578125)"/>
      <use xlink:href="#DejaVuSans-5e" transform="translate(69.580078 0.578125)"/>
      <use xlink:href="#DejaVuSans-5f" transform="translate(133.203125 0.578125)"/>
      <use xlink:href="#DejaVuSans-Oblique-5b" transform="translate(166.894531 0.578125)"/>
      <use xlink:href="#DejaVuSans-c9c" transform="translate(245.556641 0.578125)"/>
      <use xlink:href="#DejaVuSans-Oblique-350" transform="translate(348.828125 0.578125)"/>
      <use xlink:href="#DejaVuSans-5f" transform="translate(412.451172 0.578125)"/>
      <use xlink:href="#DejaVuSans-cef" transform="translate(465.625 0.578125)"/>
      <use xlink:href="#DejaVuSans-Oblique-34f" transform="translate(568.896484 0.578125)"/>
      <use xlink:href="#DejaVuSans-60" transform="translate(628.076172 0.578125)"/>
     </g>
    </g>
   </g>
  </g>
 </g>
 <defs>
  <clipPath id="pd14f33b053">
   <rect x="10.8" y="10.8" width="338.4" height="201.672298"/>
  </clipPath>
 </defs>
</svg>
