<?xml version="1.0" encoding="utf-8" standalone="no"?>
<!DOCTYPE svg PUBLIC "-//W3C//DTD SVG 1.1//EN"
  "http://www.w3.org/Graphics/SVG/1.1/DTD/svg11.dtd">
<svg xmlns:xlink="http://www.w3.org/1999/xlink" width="360pt" height="230.4pt" viewBox="0 0 360 230.4" xmlns="http://www.w3.org/2000/svg" version="1.1">
 <metadata>
  <rdf:RDF xmlns:dc="http://purl.org/dc/elements/1.1/" xmlns:cc="http://creativecommons.org/ns#" xmlns:rdf="http://www.w3.org/1999/02/22-rdf-syntax-ns#">
   <cc:Work>
    <dc:type rdf:resource="http://purl.org/dc/dcmitype/StillImage"/>
    <dc:date>2026-06-24T14:00:47.357582</dc:date>
    <dc:format>image/svg+xml</dc:format>
    <dc:creator>
     <cc:Agent>
      <dc:title>Matplotlib v3.11.0, https://matplotlib.org/</dc:title>
     </cc:Agent>
    </dc:creator>
   </cc:Work>
  </rdf:RDF>
 </metadata>
 <defs>
  <style type="text/css">*{stroke-linejoin: round; stroke-linecap: butt}</style>
 </defs>
 <g id="figure_1">
  <g id="patch_1">
   <path d="M 0 230.4 
L 360 230.4 
L 360 0 
L 0 0 
z
" style="fill: #ffffff"/>
  </g>
  <g id="axes_1">
   <g id="patch_2">
    <path d="M 10.8 219.6 
L 349.2 219.6 
L 349.2 10.8 
L 10.8 10.8 
z
" style="fill: #ffffff"/>
   </g>
   <g id="matplotlib.axis_1">
    <g id="xtick_1">
     <g id="line2d_1"/>
     <g id="text_1">
      <!-- $\lambda$ -->
      <g transform="translate(207.763636 126.3) scale(0.1 -0.1)">
       <defs>
        <path id="DejaVuSans-Oblique-34f" d="M 2350 4316 
L 3125 0 
L 2516 0 
L 2038 2588 
L 328 0 
L -281 0 
L 1903 3356 
L 1794 3975 
Q 1725 4369 1391 4369 
L 1091 4369 
L 1184 4863 
L 1550 4856 
Q 2253 4847 2350 4316 
z
" transform="scale(0.015625)"/>
       </defs>
       <use xlink:href="#DejaVuSans-Oblique-34f" transform="translate(0 0.015625)"/>
      </g>
     </g>
    </g>
   </g>
   <g id="matplotlib.axis_2"/>
   <g id="line2d_2">
    <path d="M 132.011998 -1 
L 134.686828 11.052196 
L 137.769357 23.970309 
L 140.851886 35.888068 
L 143.934414 46.840618 
L 147.016943 56.863107 
L 150.099472 65.990682 
L 152.565495 72.672023 
L 155.031518 78.821108 
L 157.497541 84.455932 
L 159.963563 89.594492 
L 162.429586 94.254781 
L 164.895609 98.454795 
L 167.361632 102.21253 
L 169.827655 105.54598 
L 172.293678 108.473141 
L 174.759701 111.012008 
L 177.225724 113.180577 
L 179.691747 114.996842 
L 182.15777 116.478799 
L 184.623793 117.644443 
L 187.089816 118.511769 
L 189.555839 119.098772 
L 192.021862 119.423448 
L 194.487885 119.503793 
L 196.953908 119.3578 
L 199.419931 119.003466 
L 201.885954 118.458785 
L 204.968482 117.537674 
L 208.051011 116.382411 
L 211.750046 114.736502 
L 216.065586 112.535112 
L 221.614137 109.408295 
L 235.793769 101.247459 
L 240.10931 99.099002 
L 243.808344 97.513588 
L 246.890873 96.419402 
L 249.973401 95.569062 
L 252.439424 95.087979 
L 254.905447 94.803446 
L 257.37147 94.73346 
L 259.837493 94.896015 
L 262.303516 95.309107 
L 264.769539 95.990731 
L 267.235562 96.958882 
L 269.701585 98.231555 
L 272.167608 99.826746 
L 274.633631 101.762449 
L 277.099654 104.056661 
L 279.565677 106.727376 
L 282.0317 109.79259 
L 284.497723 113.270297 
L 286.963746 117.178494 
L 289.429769 121.535174 
L 291.895792 126.358334 
L 294.361815 131.665969 
L 296.827837 137.476073 
L 299.29386 143.806643 
L 301.759883 150.675673 
L 304.225906 158.101159 
L 307.308435 168.192946 
L 310.390964 179.21746 
L 313.473492 191.209846 
L 316.556021 204.205253 
L 319.63855 218.238828 
L 322.33524 231.4 
L 322.33524 231.4 
" clip-path="url(#pe179f599ad)" style="fill: none; stroke: #1f77b4; stroke-width: 2; stroke-linecap: square"/>
   </g>
   <g id="line2d_3">
    <path d="M 26.181818 115.2 
L 211.13354 115.2 
L 211.13354 94.729412 
L 333.818182 94.729412 
L 333.818182 94.729412 
" clip-path="url(#pe179f599ad)" style="fill: none; stroke: #ff7f0e; stroke-width: 2; stroke-linecap: square"/>
   </g>
   <g id="patch_3">
    <path d="M 180 219.6 
L 180 10.8 
" style="fill: none; stroke: #000000; stroke-width: 0.8; stroke-linejoin: miter; stroke-linecap: square"/>
   </g>
   <g id="patch_4">
    <path d="M 10.8 115.2 
L 349.2 115.2 
" style="fill: none; stroke: #000000; stroke-width: 0.8; stroke-linejoin: miter; stroke-linecap: square"/>
   </g>
   <g id="legend_1">
    <g id="patch_5">
     <path d="M 266.4 48.804688 
L 342.2 48.804688 
Q 344.2 48.804688 344.2 46.804688 
L 344.2 17.8 
Q 344.2 15.8 342.2 15.8 
L 266.4 15.8 
Q 264.4 15.8 264.4 17.8 
L 264.4 46.804688 
Q 264.4 48.804688 266.4 48.804688 
z
" style="fill: #ffffff; opacity: 0.8; stroke: #cccccc; stroke-linejoin: miter"/>
    </g>
    <g id="line2d_4">
     <path d="M 268.4 23.9 
L 278.4 23.9 
L 288.4 23.9 
" style="fill: none; stroke: #1f77b4; stroke-width: 2; stroke-linecap: square"/>
    </g>
    <g id="text_2">
     <!-- $f(x)$ -->
     <g transform="translate(296.4 27.4) scale(0.1 -0.1)">
      <defs>
       <path id="DejaVuSans-Oblique-49" d="M 3059 4863 
L 2969 4384 
L 2419 4384 
Q 2106 4384 1964 4261 
Q 1822 4138 1753 3809 
L 1691 3500 
L 2638 3500 
L 2553 3053 
L 1606 3053 
L 1013 0 
L 434 0 
L 1031 3053 
L 481 3053 
L 563 3500 
L 1113 3500 
L 1159 3744 
Q 1278 4363 1576 4613 
Q 1875 4863 2516 4863 
L 3059 4863 
z
" transform="scale(0.015625)"/>
       <path id="DejaVuSans-b" d="M 1984 4856 
Q 1566 4138 1362 3434 
Q 1159 2731 1159 2009 
Q 1159 1288 1364 580 
Q 1569 -128 1984 -844 
L 1484 -844 
Q 1016 -109 783 600 
Q 550 1309 550 2009 
Q 550 2706 781 3412 
Q 1013 4119 1484 4856 
L 1984 4856 
z
" transform="scale(0.015625)"/>
       <path id="DejaVuSans-Oblique-5b" d="M 3841 3500 
L 2234 1784 
L 3219 0 
L 2559 0 
L 1819 1388 
L 531 0 
L -166 0 
L 1556 1844 
L 641 3500 
L 1300 3500 
L 1972 2234 
L 3144 3500 
L 3841 3500 
z
" transform="scale(0.015625)"/>
       <path id="DejaVuSans-c" d="M 513 4856 
L 1013 4856 
Q 1481 4119 1714 3412 
Q 1947 2706 1947 2009 
Q 1947 1309 1714 600 
Q 1481 -109 1013 -844 
L 513 -844 
Q 928 -128 1133 580 
Q 1338 1288 1338 2009 
Q 1338 2731 1133 3434 
Q 928 4138 513 4856 
z
" transform="scale(0.015625)"/>
      </defs>
      <use xlink:href="#DejaVuSans-Oblique-49" transform="translate(0 0.015625)"/>
      <use xlink:href="#DejaVuSans-b" transform="translate(35.205078 0.015625)"/>
      <use xlink:href="#DejaVuSans-Oblique-5b" transform="translate(74.21875 0.015625)"/>
      <use xlink:href="#DejaVuSans-c" transform="translate(133.398438 0.015625)"/>
     </g>
    </g>
    <g id="line2d_5">
     <path d="M 268.4 38.902344 
L 278.4 38.902344 
L 278.4 38.902344 
L 288.4 38.902344 
L 288.4 38.902344 
" style="fill: none; stroke: #ff7f0e; stroke-width: 2; stroke-linecap: square"/>
    </g>
    <g id="text_3">
     <!-- $\mathbf{1}\{x \geq \lambda\}$ -->
     <g transform="translate(296.4 42.402344) scale(0.1 -0.1)">
      <defs>
       <path id="DejaVuSans-Bold-14" d="M 750 831 
L 1813 831 
L 1813 3847 
L 722 3622 
L 722 4441 
L 1806 4666 
L 2950 4666 
L 2950 831 
L 4013 831 
L 4013 0 
L 750 0 
L 750 831 
z
" transform="scale(0.015625)"/>
       <path id="DejaVuSans-5e" d="M 3272 -594 
L 3272 -1044 
L 3078 -1044 
Q 2300 -1044 2036 -812 
Q 1772 -581 1772 109 
L 1772 856 
Q 1772 1328 1603 1509 
Q 1434 1691 991 1691 
L 800 1691 
L 800 2138 
L 991 2138 
Q 1438 2138 1605 2317 
Q 1772 2497 1772 2963 
L 1772 3713 
Q 1772 4403 2036 4633 
Q 2300 4863 3078 4863 
L 3272 4863 
L 3272 4416 
L 3059 4416 
Q 2619 4416 2484 4278 
Q 2350 4141 2350 3700 
L 2350 2925 
Q 2350 2434 2208 2212 
Q 2066 1991 1722 1913 
Q 2069 1828 2209 1606 
Q 2350 1384 2350 897 
L 2350 122 
Q 2350 -319 2484 -456 
Q 2619 -594 3059 -594 
L 3272 -594 
z
" transform="scale(0.015625)"/>
       <path id="DejaVuSans-cef" d="M 678 3175 
L 678 3725 
L 4684 2578 
L 4684 2047 
L 678 897 
L 678 1453 
L 3681 2309 
L 678 3175 
z
M 4684 531 
L 4684 0 
L 678 0 
L 678 531 
L 4684 531 
z
" transform="scale(0.015625)"/>
       <path id="DejaVuSans-60" d="M 800 -594 
L 1019 -594 
Q 1456 -594 1589 -459 
Q 1722 -325 1722 122 
L 1722 897 
Q 1722 1384 1862 1606 
Q 2003 1828 2350 1913 
Q 2003 1991 1862 2212 
Q 1722 2434 1722 2925 
L 1722 3700 
Q 1722 4144 1589 4280 
Q 1456 4416 1019 4416 
L 800 4416 
L 800 4863 
L 997 4863 
Q 1775 4863 2036 4633 
Q 2297 4403 2297 3713 
L 2297 2963 
Q 2297 2497 2465 2317 
Q 2634 2138 3078 2138 
L 3272 2138 
L 3272 1691 
L 3078 1691 
Q 2634 1691 2465 1509 
Q 2297 1328 2297 856 
L 2297 109 
Q 2297 -581 2036 -812 
Q 1775 -1044 997 -1044 
L 800 -1044 
L 800 -594 
z
" transform="scale(0.015625)"/>
      </defs>
      <use xlink:href="#DejaVuSans-Bold-14" transform="translate(0 0.015625)"/>
      <use xlink:href="#DejaVuSans-5e" transform="translate(69.580078 0.015625)"/>
      <use xlink:href="#DejaVuSans-Oblique-5b" transform="translate(133.203125 0.015625)"/>
      <use xlink:href="#DejaVuSans-cef" transform="translate(211.865234 0.015625)"/>
      <use xlink:href="#DejaVuSans-Oblique-34f" transform="translate(315.136719 0.015625)"/>
      <use xlink:href="#DejaVuSans-60" transform="translate(374.316406 0.015625)"/>
     </g>
    </g>
   </g>
  </g>
 </g>
 <defs>
  <clipPath id="pe179f599ad">
   <rect x="10.8" y="10.8" width="338.4" height="208.8"/>
  </clipPath>
 </defs>
</svg>
